<svg width="150" height="150" viewBox="0 0 150 150" fill="none" xmlns="http://www.w3.org/2000/svg">
<path d="M28.0511 57.5209L20.2679 60.5802V58.8185L26.0404 56.7543L20.2679 54.6767V52.8882L28.0511 55.9542V57.5209Z" fill="#E82C2A"/>
<path d="M36.8878 60.8625V62.3888H28.9192V60.8625H36.8878Z" fill="#E82C2A"/>
<path d="M75.0987 60.634C77.2061 60.6346 79.31 60.7875 81.3906 61.0912C83.98 61.4879 86.5843 63.2428 86.5843 65.8516V76.9929C86.5981 78.2008 86.0824 79.3643 85.1503 80.2279C84.2182 81.0914 82.946 81.5845 81.6131 81.5987H68.7327C66.2156 81.6212 63.8079 82.5347 62.0237 84.1439C60.2396 85.7532 59.2204 87.9308 59.1837 90.2118V94.246H56.2159C53.4855 94.246 51.6602 92.5987 50.7996 89.3444C49.6348 85.6622 49.6348 81.7576 50.7996 78.0754C51.6083 75.0094 54.0864 73.1738 57.4253 73.1738H76.7088V68.9983H63.7616V65.8852C63.7616 63.1554 64.2587 61.851 68.9553 61.1248C70.9162 60.8219 72.9018 60.669 74.891 60.6676H75.0765L75.0987 60.634ZM75.0765 59.3228H74.8836C72.8147 59.3242 70.7497 59.4839 68.7105 59.8002C63.2496 60.6743 62.2554 62.4897 62.2554 65.8516V70.3095H75.2249V71.7954H57.4178C53.6635 71.7954 50.3766 73.8125 49.3453 77.7325C48.1356 81.6215 48.1356 85.7378 49.3453 89.6268C50.2653 93.0896 52.4616 95.5572 56.2084 95.5572H60.6602V90.1782C60.7078 88.2571 61.5742 86.4273 63.0777 85.0723C64.5812 83.7173 66.6052 82.9423 68.7253 82.9098H81.628C82.4831 82.9036 83.3286 82.7448 84.1159 82.4423C84.9033 82.1399 85.6171 81.6997 86.2166 81.1471C86.8161 80.5944 87.2895 79.9401 87.6098 79.2215C87.9301 78.5029 88.0909 77.7342 88.083 76.9593V65.8516C88.083 62.678 85.1152 60.2978 81.628 59.8002C79.467 59.481 77.2809 59.3214 75.0913 59.3228H75.0765Z" fill="#E82C2A"/>
<path d="M94.5158 73.1402C96.2298 73.1402 98.3443 73.6982 99.5389 78.0552C100.793 82.6274 100.8 85.8548 99.5389 89.2032C98.1292 93.0425 96.9495 94.2124 94.4862 94.2124H73.741V98.3879H86.6362V101.508C86.6362 103.659 84.8258 105.226 81.2496 106.161C79.2787 106.702 77.2324 106.985 75.1729 107.001C73.1425 106.988 71.1251 106.704 69.1853 106.161C64.4887 104.91 63.7913 102.711 63.7913 101.508V90.3597C63.7948 89.1572 64.3164 88.0034 65.245 87.1443C66.1736 86.2852 67.4357 85.7887 68.7624 85.7607H81.6651C84.1986 85.7153 86.6129 84.7771 88.3957 83.1452C90.1786 81.5133 91.1895 79.316 91.2141 77.0198V73.1671H94.5158V73.1402ZM94.5158 71.8223H89.6708V77.0198C89.6409 78.9579 88.7845 80.8103 87.2811 82.189C85.7777 83.5677 83.7439 84.3657 81.6057 84.4159H68.7327C67.0131 84.4458 65.3747 85.0845 64.1682 86.1954C62.9618 87.3063 62.2832 88.8011 62.2777 90.3597V101.508C62.2777 104.675 65.3197 106.544 68.7327 107.452C70.8099 108.032 72.9697 108.333 75.1433 108.346C77.3434 108.331 79.5297 108.029 81.6354 107.452C84.8852 106.598 88.0905 104.883 88.0905 101.508V97.0431H75.2249V95.5572H94.5158C98.2701 95.5572 99.7096 93.1837 100.978 89.6268C102.321 85.9624 102.269 82.4324 100.978 77.7325C100.051 74.3706 98.2776 71.7954 94.5158 71.7954V71.8223Z" fill="#E82C2A"/>
<path d="M82.4442 101.366C82.5695 101.367 82.6934 101.391 82.8088 101.435C82.9241 101.48 83.0286 101.544 83.1162 101.626C83.2038 101.707 83.2728 101.803 83.3192 101.909C83.3656 102.014 83.3884 102.127 83.3865 102.241C83.3981 102.359 83.3824 102.478 83.3405 102.59C83.2986 102.702 83.2314 102.805 83.1431 102.893C83.0548 102.98 82.9474 103.05 82.8277 103.098C82.708 103.146 82.5787 103.17 82.4479 103.17C82.3171 103.17 82.1878 103.146 82.0681 103.098C81.9484 103.05 81.841 102.98 81.7527 102.893C81.6644 102.805 81.5972 102.702 81.5553 102.59C81.5134 102.478 81.4977 102.359 81.5093 102.241C81.5073 102.128 81.53 102.015 81.5759 101.91C81.6218 101.805 81.6901 101.709 81.7769 101.628C81.8638 101.547 81.9674 101.482 82.0819 101.437C82.1963 101.392 82.3195 101.368 82.4442 101.366ZM82.4442 100.022C81.9548 100.015 81.4744 100.141 81.0641 100.382C80.6539 100.624 80.3324 100.971 80.1407 101.379C79.949 101.787 79.8957 102.238 79.9878 102.674C80.0798 103.109 80.3129 103.51 80.6574 103.825C81.0018 104.14 81.442 104.355 81.9219 104.442C82.4017 104.53 82.8993 104.486 83.3513 104.316C83.8033 104.146 84.1892 103.857 84.4598 103.488C84.7303 103.118 84.8733 102.684 84.8704 102.241C84.8723 101.95 84.8111 101.663 84.6901 101.394C84.5692 101.125 84.3909 100.881 84.1655 100.675C83.9401 100.469 83.672 100.305 83.3767 100.193C83.0813 100.081 82.7644 100.023 82.4442 100.022Z" fill="#E82C2A"/>
<path d="M67.924 64.2245C68.1191 64.2178 68.312 64.2641 68.4778 64.3575C68.6437 64.4508 68.775 64.587 68.8548 64.7485C68.9347 64.9099 68.9595 65.0893 68.926 65.2637C68.8925 65.438 68.8022 65.5993 68.6669 65.7268C68.5315 65.8543 68.3571 65.9422 68.1662 65.9793C67.9753 66.0163 67.7765 66.0008 67.5954 65.9347C67.4142 65.8687 67.259 65.755 67.1497 65.6085C67.0404 65.4619 66.9819 65.289 66.9817 65.112C66.9788 64.9976 67.0008 64.8837 67.0467 64.777C67.0925 64.6703 67.1613 64.5729 67.2489 64.4904C67.3365 64.4079 67.4412 64.3419 67.5571 64.2963C67.673 64.2506 67.7977 64.2263 67.924 64.2245V64.2245ZM67.924 62.8798C67.435 62.8717 66.9545 62.9958 66.5436 63.2362C66.1327 63.4766 65.81 63.8223 65.6167 64.2295C65.4234 64.6366 65.3683 65.0866 65.4582 65.5223C65.5482 65.9579 65.7792 66.3595 66.1219 66.6757C66.4645 66.9919 66.9033 67.2086 67.3823 67.298C67.8613 67.3875 68.3589 67.3457 68.8116 67.178C69.2643 67.0103 69.6517 66.7243 69.9243 66.3563C70.197 65.9884 70.3427 65.5553 70.3428 65.112C70.3457 64.8215 70.2855 64.5334 70.1655 64.264C70.0455 63.9946 69.8682 63.7492 69.6436 63.5419C69.419 63.3346 69.1515 63.1695 68.8565 63.0558C68.5614 62.9422 68.2446 62.8824 67.924 62.8798V62.8798Z" fill="#E82C2A"/>
<path d="M135.442 48H15V115.17H135.442V48Z" stroke="#E82C2A" stroke-width="2" stroke-miterlimit="10"/>
<path d="M104.725 119.635H45.8804" stroke="#E82C2A" stroke-width="2" stroke-miterlimit="10"/>
</svg>
